<?xml version="1.0" encoding="UTF-8"?>
<svg id="Layer_2" data-name="Layer 2" xmlns="http://www.w3.org/2000/svg" viewBox="0 0 886.1 108.61">
  <defs>
    <style>
      .cls-1 {
        fill: #f6ece1;
      }
    </style>
  </defs>
  <g id="Finals">
    <g>
      <g>
        <path class="cls-1" d="M103.45,43.63l-.83,4.11.84-4.11h0Z"/>
        <path class="cls-1" d="M132.57,58.59l38.27,47.81h-41.92l-29.14-41.49-.47,2.86c-2.68,13.72-8.74,23.97-18.16,30.72-9.42,6.75-21.66,10.12-36.72,10.12-22.4,0-37.22-8.15-44.42-24.45l31.29-14.69c1.29,3.49,3.16,5.99,5.6,7.51s5.8,2.28,10.05,2.28c10.55,0,16.61-3.99,18.15-11.97L77.81,0h34.44l-8.8,43.63h0l-.83,4.11L148.67,0h40.29l-46.81,47.74-9.58,10.84Z"/>
      </g>
      <g>
        <path class="cls-1" d="M236.56,91.27c-6,0-11.92-1.68-15.71-3.79l2.82-11.3c3.71,2.12,7.24,3.44,10.68,3.44,5.74,0,7.94-3,7.94-10.15v-34.68h14.03v35.74c0,13.06-6.18,20.74-19.77,20.74Z"/>
        <path class="cls-1" d="M297.45,91.27c-14.39,0-24.27-7.06-24.27-22.59v-33.89h13.94v32.04c0,8.3,3.35,12.62,10.68,12.62,6.62,0,10.06-3.53,10.06-12.09,0,.18,0-32.57,0-32.57h13.94v32.65c0,15.97-9.53,23.83-24.36,23.83Z"/>
        <path class="cls-1" d="M365.76,74.5c0-3.71-3.97-4.94-11.3-6.97-8.03-2.21-17.74-5.91-17.74-16.95,0-10.24,7.5-17.03,21.18-17.03,8.65,0,15.36,1.94,20.65,4.85l-2.74,11.56c-5.47-2.91-12.36-4.85-17.83-4.85-4.85,0-7.24,1.68-7.24,4.68,0,3.62,5.03,5.03,11.65,6.88,8.47,2.29,17.3,6.18,17.3,16.68s-8.12,17.92-22.59,17.92c-8.21,0-16.15-2.12-21.27-5.03l2.65-11.65c5.47,2.91,12.09,5.12,18.89,5.12,4.94,0,8.38-1.85,8.38-5.21Z"/>
        <path class="cls-1" d="M421.36,46.52v43.42h-14.03v-43.42h-17.56v-11.74h49.16v11.74h-17.56Z"/>
        <path class="cls-1" d="M452.95,89.94v-55.16h14.03v55.16h-14.03Z"/>
        <path class="cls-1" d="M522.94,34.78h13.15v55.69h-14.92l-23.21-36.27v35.74h-13.15v-55.16h15.18l22.95,35.83v-35.83Z"/>
        <path class="cls-1" d="M594.16,59.14l18.36-24.36h16.06l-21.8,26.92,22.33,28.24h-16.77l-18.18-24.27h-.09v24.27h-14.03v-55.16h14.03v24.36h.09Z"/>
        <path class="cls-1" d="M641.37,89.94v-55.16h40.33v11.3h-26.57v10.59h21.36v11.21h-21.36v10.77h26.57v11.3h-40.33Z"/>
        <path class="cls-1" d="M735.54,34.78h13.15v55.69h-14.92l-23.21-36.27v35.74h-13.15v-55.16h15.18l22.95,35.83v-35.83Z"/>
        <path class="cls-1" d="M804.46,34.78h13.15v55.69h-14.92l-23.21-36.27v35.74h-13.15v-55.16h15.18l22.95,35.83v-35.83Z"/>
        <path class="cls-1" d="M886.1,89.94h-13.94l-4.06-11.74h-20.48l-3.97,11.74h-13.94l19.59-55.16h17.56l19.24,55.16ZM857.94,45.64l-7.33,21.62h14.39l-7.06-21.62Z"/>
      </g>
    </g>
  </g>
</svg>