<?xml version="1.0" encoding="UTF-8"?>
<svg id="Layer_2" data-name="Layer 2" xmlns="http://www.w3.org/2000/svg" viewBox="0 0 730 348.29">
  <g id="Finals">
    <g>
      <g>
        <path d="M376.48,83.18l-1.58,7.84,1.59-7.84h-.02Z"/>
        <path d="M431.99,111.7l72.96,91.16h-79.92l-55.55-79.09-.9,5.45c-5.11,26.16-16.67,45.7-34.63,58.56-17.96,12.86-41.3,19.29-70.01,19.29-42.71,0-70.95-15.53-84.69-46.61l59.66-28c2.45,6.65,6.02,11.43,10.67,14.31,4.66,2.89,11.05,4.34,19.16,4.34,20.11,0,31.66-7.61,34.61-22.82L327.59,0h65.67l-16.77,83.18h-.02l-1.58,7.84L462.7,0h76.8l-89.23,91.02-18.27,20.67Z"/>
      </g>
      <g>
        <path d="M17.24,348.29c-6.58,0-13.08-1.84-17.24-4.16l3.1-12.4c4.07,2.32,7.94,3.78,11.72,3.78,6.3,0,8.72-3.29,8.72-11.14v-38.06h15.4v39.23c0,14.33-6.78,22.76-21.7,22.76Z"/>
        <path d="M84.06,348.29c-15.79,0-26.64-7.75-26.64-24.79v-37.19h15.3v35.16c0,9.1,3.68,13.85,11.72,13.85,7.26,0,11.04-3.87,11.04-13.27,0,.19,0-35.74,0-35.74h15.3v35.84c0,17.53-10.46,26.15-26.73,26.15Z"/>
        <path d="M159.02,329.88c0-4.07-4.36-5.42-12.4-7.65-8.81-2.42-19.47-6.49-19.47-18.6,0-11.23,8.23-18.69,23.25-18.69,9.49,0,16.85,2.13,22.66,5.33l-3,12.69c-6-3.19-13.56-5.33-19.56-5.33-5.33,0-7.94,1.84-7.94,5.13,0,3.97,5.52,5.52,12.78,7.55,9.3,2.52,18.98,6.78,18.98,18.31s-8.91,19.66-24.79,19.66c-9.01,0-17.72-2.32-23.34-5.52l2.9-12.78c6.01,3.2,13.27,5.62,20.73,5.62,5.42,0,9.2-2.03,9.2-5.72Z"/>
        <path d="M220.03,299.18v47.65h-15.4v-47.65h-19.27v-12.88h53.95v12.88h-19.27Z"/>
        <path d="M254.69,346.83v-60.53h15.4v60.53h-15.4Z"/>
        <path d="M331.49,286.3h14.43v61.11h-16.37l-25.47-39.81v39.23h-14.43v-60.53h16.66l25.18,39.32v-39.32Z"/>
        <path d="M409.64,313.03l20.14-26.73h17.63l-23.92,29.54,24.5,30.99h-18.4l-19.95-26.64h-.1v26.64h-15.4v-60.53h15.4v26.73h.1Z"/>
        <path d="M461.45,346.83v-60.53h44.26v12.4h-29.15v11.62h23.44v12.3h-23.44v11.82h29.15v12.4h-44.26Z"/>
        <path d="M564.79,286.3h14.43v61.11h-16.37l-25.47-39.81v39.23h-14.43v-60.53h16.66l25.18,39.32v-39.32Z"/>
        <path d="M640.42,286.3h14.43v61.11h-16.37l-25.47-39.81v39.23h-14.43v-60.53h16.66l25.18,39.32v-39.32Z"/>
        <path d="M730,346.83h-15.3l-4.46-12.88h-22.47l-4.36,12.88h-15.3l21.5-60.53h19.27l21.11,60.53ZM699.1,298.21l-8.04,23.73h15.79l-7.75-23.73Z"/>
      </g>
    </g>
  </g>
</svg>