<?xml version="1.0" encoding="UTF-8"?>
<svg id="Layer_2" data-name="Layer 2" xmlns="http://www.w3.org/2000/svg" viewBox="0 0 265.42 152.56">
  <defs>
    <style>
      .cls-1 {
        fill: #f6ece1;
      }
    </style>
  </defs>
  <g id="Finals">
    <g>
      <path class="cls-1" d="M145.31,61.28l-1.16,5.78,1.17-5.78h-.01Z"/>
      <path class="cls-1" d="M186.21,82.29l53.75,67.16h-58.88l-40.93-58.27-.66,4.02c-3.77,19.28-12.28,33.67-25.51,43.15-13.23,9.48-30.43,14.21-51.58,14.21-31.47,0-52.28-11.44-62.4-34.34l43.95-20.63c1.81,4.9,4.43,8.42,7.86,10.55,3.43,2.13,8.14,3.2,14.12,3.2,14.82,0,23.33-5.6,25.5-16.81L109.29,0h48.38l-12.35,61.28h-.01l-1.16,5.78L208.83,0h56.59l-65.74,67.06-13.46,15.23Z"/>
    </g>
  </g>
</svg>